<svg width={18} height={18} viewBox="0 0 18 18" fill="none" xmlns="http://www.w3.org/2000/svg">
  <g clipPath="url(#clip0_36_45)">
    <path fillRule="evenodd" clipRule="evenodd" d="M7.3125 10.6875L3.375 8.4375V1.6875C3.375 1.23995 3.55279 0.810725 3.86926 0.494257C4.18573 0.17779 4.61495 0 5.0625 0L12.9375 0C13.3851 0 13.8143 0.17779 14.1307 0.494257C14.4472 0.810725 14.625 1.23995 14.625 1.6875V8.4375L10.6875 10.6875L9 9.84375L7.3125 10.6875ZM1.19138 4.08938L2.25 3.52462V7.74675L1.12544e-08 6.42712V6.075C-4.07775e-05 5.66712 0.110791 5.26691 0.320641 4.91716C0.530491 4.56741 0.831466 4.28128 1.19138 4.08938ZM18 6.42712L15.75 7.74675V3.52462L16.8086 4.08938C17.1685 4.28128 17.4695 4.56741 17.6794 4.91716C17.8892 5.26691 18 5.66712 18 6.075V6.42712ZM18 7.73213L11.5954 11.4862L18 15.0435V7.731V7.73213ZM9 11.331L17.9336 16.2945C17.8121 16.7817 17.5312 17.2142 17.1355 17.5232C16.7398 17.8323 16.2521 18.0001 15.75 18H2.25C1.74792 18.0001 1.26022 17.8323 0.864528 17.5232C0.468834 17.2142 0.187879 16.7817 0.066375 16.2945L9 11.331ZM1.12544e-08 15.0435L6.40462 11.4862L1.12544e-08 7.73213V15.0446V15.0435Z" fill="black" />
  </g>
  <defs>
    <clipPath id="clip0_36_45">
      <rect width={18} height={18} fill="white" />
    </clipPath>
  </defs>
</svg>
