<?xml version="1.0" encoding="UTF-8"?>
<svg width="1000px" height="347px" viewBox="0 0 1000 347" version="1.1" xmlns="http://www.w3.org/2000/svg" xmlns:xlink="http://www.w3.org/1999/xlink">
    <!-- Generator: Sketch 52.2 (67145) - http://www.bohemiancoding.com/sketch -->
    <title>mfa</title>
    <desc>Created with Sketch.</desc>
    <defs>
        <polygon id="path-1" points="1.11272727 0.675495198 3.33907236 0.675495198 3.33907236 1.80016432 1.11272727 1.80016432"></polygon>
        <polygon id="path-3" points="1.10627087 1.1023852 3.33261596 1.1023852 3.33261596 2.22839136 1.10627087 2.22839136"></polygon>
        <polygon id="path-5" points="0.695732839 0.852136855 1.81625232 0.852136855 1.81625232 3.08052821 0.695732839 3.08052821"></polygon>
        <polygon id="path-7" points="1.10627087 0.841217737 2.22634508 0.841217737 2.22634508 3.06960909 1.10627087 3.06960909"></polygon>
        <polygon id="path-9" points="0.5 0.24745 0.75255 0.24745 0.75255 0.74745 0.5 0.74745"></polygon>
        <polygon id="path-11" points="0.25245 0.24985 0.505 0.24985 0.505 0.74985 0.25245 0.74985"></polygon>
        <polygon id="path-13" points="0.19625 0.24745 0.69625 0.24745 0.69625 0.5 0.19625 0.5"></polygon>
        <polygon id="path-15" points="0.19385 0.495 0.69385 0.495 0.69385 0.74745 0.19385 0.74745"></polygon>
        <polygon id="path-17" points="1.11272727 0.675495198 3.33907236 0.675495198 3.33907236 1.80016432 1.11272727 1.80016432"></polygon>
        <polygon id="path-19" points="1.10627087 1.1023852 3.33261596 1.1023852 3.33261596 2.22839136 1.10627087 2.22839136"></polygon>
        <polygon id="path-21" points="0.695732839 0.852136855 1.81625232 0.852136855 1.81625232 3.08052821 0.695732839 3.08052821"></polygon>
        <polygon id="path-23" points="1.10627087 0.841217737 2.22634508 0.841217737 2.22634508 3.06960909 1.10627087 3.06960909"></polygon>
        <polygon id="path-25" points="0.000119047619 0.00961172161 38.0857143 0.00961172161 38.0857143 38.4466462 0.000119047619 38.4466462"></polygon>
        <polygon id="path-27" points="0.588235294 0.28684058 0.885176471 0.28684058 0.885176471 0.866550725 0.588235294 0.866550725"></polygon>
        <polygon id="path-29" points="0.296941176 0.289681159 0.594117647 0.289681159 0.594117647 0.869391304 0.296941176 0.869391304"></polygon>
        <polygon id="path-31" points="0.230882353 0.28684058 0.819117647 0.28684058 0.819117647 0.579710145 0.230882353 0.579710145"></polygon>
        <polygon id="path-33" points="0.228 0.573913043 0.816235294 0.573913043 0.816235294 0.866550725 0.228 0.866550725"></polygon>
        <polygon id="path-35" points="0 147.794118 145.632128 147.794118 145.632128 2.18382353 0 2.18382353"></polygon>
        <polygon id="path-37" points="0 147.794118 145.632128 147.794118 145.632128 2.18382353 0 2.18382353"></polygon>
        <polygon id="path-39" points="0 147.794118 145.632128 147.794118 145.632128 2.18382353 0 2.18382353"></polygon>
        <polygon id="path-41" points="0 147.794118 145.632128 147.794118 145.632128 2.18382353 0 2.18382353"></polygon>
        <polygon id="path-43" points="0 147.794118 145.632128 147.794118 145.632128 2.18382353 0 2.18382353"></polygon>
        <polygon id="path-45" points="0 147.794118 145.632128 147.794118 145.632128 2.18382353 0 2.18382353"></polygon>
    </defs>
    <g id="mfa" stroke="none" stroke-width="1" fill="none" fill-rule="evenodd">
        <g id="Group-17" transform="translate(709.000000, 96.000000)">
            <polygon id="Fill-1" fill="#4A4C54" points="91.8322894 3.06122449 3.06122449 3.06122449 3.07011515 145.408163 91.8367347 145.408163"></polygon>
            <polygon id="Fill-2" fill="#FFFFFF" points="12.244898 127.040816 82.6530612 127.040816 82.6530612 21.4285714 12.244898 21.4285714"></polygon>
            <polygon id="Fill-3" fill="#4A4C54" points="21.4285714 117.857143 75 117.857143 75 29.0816327 21.4285714 29.0816327"></polygon>
            <g id="Group-16">
                <g id="Group-6" transform="translate(45.222635, 0.000000)">
                    <mask id="mask-2" fill="white">
                        <use xlink:href="#path-1"></use>
                    </mask>
                    <g id="Clip-5"></g>
                    <path d="M2.22589981,0.697110594 C2.22367347,0.697110594 2.21922078,0.692653812 2.21922078,0.685968637 C2.21922078,0.679283463 2.22367347,0.674826681 2.22589981,0.674826681 C2.2303525,0.674826681 2.23257885,0.679283463 2.23257885,0.685968637 C2.23257885,0.692653812 2.2303525,0.697110594 2.22589981,0.697110594" id="Fill-4" fill="#4A4C54" mask="url(#mask-2)"></path>
                </g>
                <g id="Group-9" transform="translate(45.222635, 145.543217)">
                    <mask id="mask-4" fill="white">
                        <use xlink:href="#path-3"></use>
                    </mask>
                    <g id="Clip-8"></g>
                    <path d="M2.21944341,2.22772284 C2.21499072,2.22772284 2.21276438,2.22326606 2.21276438,2.21658088 C2.21276438,2.20989571 2.21499072,2.20543893 2.21944341,2.20543893 C2.22166976,2.20543893 2.22612245,2.20989571 2.22612245,2.21658088 C2.22612245,2.22326606 2.22166976,2.22772284 2.21944341,2.22772284" id="Fill-7" fill="#4A4C54" mask="url(#mask-4)"></path>
                </g>
                <g id="Group-12" transform="translate(0.000000, 72.006303)">
                    <mask id="mask-6" fill="white">
                        <use xlink:href="#path-5"></use>
                    </mask>
                    <g id="Clip-11"></g>
                    <path d="M0.703079777,1.97747449 C0.698627087,1.97747449 0.696400742,1.97301771 0.696400742,1.96633253 C0.696400742,1.95964736 0.698627087,1.95519058 0.703079777,1.95519058 C0.705306122,1.95519058 0.709758813,1.95964736 0.709758813,1.96633253 C0.709758813,1.97301771 0.705306122,1.97747449 0.703079777,1.97747449" id="Fill-10" fill="#4A4C54" mask="url(#mask-6)"></path>
                </g>
                <g id="Group-15" transform="translate(91.975881, 72.006303)">
                    <mask id="mask-8" fill="white">
                        <use xlink:href="#path-7"></use>
                    </mask>
                    <g id="Clip-14"></g>
                    <path d="M2.21944341,1.96655537 C2.21499072,1.96655537 2.21276438,1.96209859 2.21276438,1.95541342 C2.21276438,1.94872824 2.21499072,1.94427146 2.21944341,1.94427146 C2.22166976,1.94427146 2.22612245,1.94872824 2.22612245,1.95541342 C2.22612245,1.96209859 2.22166976,1.96655537 2.21944341,1.96655537" id="Fill-13" fill="#4A4C54" mask="url(#mask-8)"></path>
                </g>
            </g>
        </g>
        <g id="Group-15" transform="translate(737.000000, 151.000000)">
            <g id="Group-3" transform="translate(0.000000, 19.555556)">
                <mask id="mask-10" fill="white">
                    <use xlink:href="#path-9"></use>
                </mask>
                <g id="Clip-2"></g>
                <path d="M0.50505,0.49745 C0.50505,0.49895 0.50405,0.49995 0.50255,0.49995 C0.50105,0.49995 0.50005,0.49895 0.50005,0.49745 C0.50005,0.49595 0.50105,0.49495 0.50255,0.49495 C0.50405,0.49495 0.50505,0.49595 0.50505,0.49745" id="Fill-1" fill="#4A4C54" mask="url(#mask-10)"></path>
            </g>
            <g id="Group-6" transform="translate(39.111111, 19.555556)">
                <mask id="mask-12" fill="white">
                    <use xlink:href="#path-11"></use>
                </mask>
                <g id="Clip-5"></g>
                <path d="M0.50495,0.49985 C0.50495,0.50135 0.50395,0.50235 0.50245,0.50235 C0.50095,0.50235 0.49995,0.50135 0.49995,0.49985 C0.49995,0.49835 0.50095,0.49735 0.50245,0.49735 C0.50395,0.49735 0.50495,0.49835 0.50495,0.49985" id="Fill-4" fill="#4A4C54" mask="url(#mask-12)"></path>
            </g>
            <g id="Group-9" transform="translate(19.555556, 39.111111)">
                <mask id="mask-14" fill="white">
                    <use xlink:href="#path-13"></use>
                </mask>
                <g id="Clip-8"></g>
                <path d="M0.44875,0.49745 C0.44875,0.49895 0.44775,0.49995 0.44625,0.49995 C0.44475,0.49995 0.44375,0.49895 0.44375,0.49745 C0.44375,0.49595 0.44475,0.49495 0.44625,0.49495 C0.44775,0.49495 0.44875,0.49595 0.44875,0.49745" id="Fill-7" fill="#4A4C54" mask="url(#mask-14)"></path>
            </g>
            <g id="Group-12" transform="translate(19.555556, 0.000000)">
                <mask id="mask-16" fill="white">
                    <use xlink:href="#path-15"></use>
                </mask>
                <g id="Clip-11"></g>
                <path d="M0.44635,0.49745 C0.44635,0.49895 0.44535,0.49995 0.44385,0.49995 C0.44235,0.49995 0.44135,0.49895 0.44135,0.49745 C0.44135,0.49595 0.44235,0.49495 0.44385,0.49495 C0.44535,0.49495 0.44635,0.49595 0.44635,0.49745" id="Fill-10" fill="#4A4C54" mask="url(#mask-16)"></path>
            </g>
            <path d="M30.6129032,16.7378712 L28.3566308,17.5248486 C27.1188769,13.9726864 23.7610514,11.585442 19.9994026,11.585442 C17.2676225,11.58604 14.7305854,12.8209247 13.0394265,14.9743483 L11.160693,13.4954767 C13.3076464,10.7619862 16.5292712,9.19401158 19.9994026,9.19341358 C24.7759857,9.19341358 29.0412186,12.2253096 30.6129032,16.7378712 Z M26.2156511,25.8150211 L23.8261649,25.8150211 L23.8261649,20.4425253 C23.8261649,18.3303642 22.1099164,16.6122897 19.9994026,16.6122897 C17.8894863,16.6122897 16.1732378,18.3303642 16.1732378,20.4425253 L16.1732378,25.5847884 L13.7837515,25.5847884 L13.7837515,20.4425253 C13.7837515,17.0117585 16.572282,14.2202613 19.9994026,14.2202613 C23.4271207,14.2202613 26.2156511,17.0117585 26.2156511,20.4425253 L26.2156511,25.8150211 Z M18.8046595,32.114428 L21.1941458,32.114428 L21.1941458,20.7522929 L18.8046595,20.7522929 L18.8046595,32.114428 Z M6.130227,20.4425253 L6.130227,21.8615961 L3.74074074,21.8615961 L3.74074074,20.4425253 C3.74074074,11.4676346 11.0346476,4.16716385 19.9994026,4.16716385 C22.7622461,4.16716385 25.4916368,4.87281223 27.8912784,6.20935812 L26.7299881,8.29999096 C24.6845878,7.16078742 22.3572282,6.55919227 19.9994026,6.55919227 C12.3518519,6.55919227 6.130227,12.7874363 6.130227,20.4425253 Z M39.1111111,20.0203322 C39.1111111,9.45414468 30.5543608,0.888888889 19.9994026,0.888888889 C9.44444444,0.888888889 0.888888889,9.45414468 0.888888889,20.0203322 C0.888888889,23.7094381 1.93428913,27.152165 3.74074074,30.0746257 L3.74074074,24.8516317 L6.130227,24.8516317 L6.130227,33.1746946 C6.9348865,34.0244627 7.81481481,34.8006759 8.76224612,35.4913741 L8.76224612,20.4425253 C8.76224612,19.0461787 9.01493429,17.6833205 9.51314217,16.3916251 L11.7425329,17.2533534 C11.3500597,18.2693674 11.1517324,19.3421922 11.1517324,20.4425253 L11.1517324,36.9768237 C11.9940263,37.418153 12.8733572,37.7978875 13.7837515,38.1112432 L13.7837515,28.5748239 L16.1732378,28.5748239 L16.1732378,38.767855 C17.0304659,38.9424731 17.9097969,39.0554965 18.8046595,39.1111111 L18.8046595,35.1044635 L21.1941458,35.1044635 L21.1941458,39.1111111 C22.0890084,39.0554965 22.9689367,38.9424731 23.8261649,38.767855 L23.8261649,28.8050566 L26.2156511,28.8050566 L26.2156511,38.1112432 C27.1260454,37.7978875 28.004779,37.418751 28.8470729,36.9774218 L28.8470729,20.4425253 C28.8470729,20.3300999 28.8452808,20.2152826 28.8410992,20.1016612 L31.2287933,20.0143522 C31.2341697,20.1554818 31.2365591,20.2972095 31.2365591,20.4395352 L31.2365591,35.4913741 C32.1851852,34.8000779 33.0639188,34.0196786 33.8685783,33.1693125 L33.8685783,32.4959565 L33.8685783,31.2473177 L33.8685783,20.4425253 C33.8685783,16.3665088 32.0890084,12.511755 28.9856631,9.86676958 L30.5346476,8.04523993 C34.172043,11.1453088 36.2580645,15.6644485 36.2580645,20.4425253 L36.2580645,30.0752237 C38.0651135,27.152763 39.1111111,23.7094381 39.1111111,20.0203322 Z" id="Fill-13" fill="#FFFFFF"></path>
        </g>
        <g id="Group-17" transform="translate(452.000000, 96.000000)">
            <polygon id="Fill-1" fill="#4A4C54" points="91.8322894 3.06122449 3.06122449 3.06122449 3.07011515 145.408163 91.8367347 145.408163"></polygon>
            <polygon id="Fill-2" fill="#FFFFFF" points="12.244898 127.040816 82.6530612 127.040816 82.6530612 21.4285714 12.244898 21.4285714"></polygon>
            <polygon id="Fill-3" fill="#4A4C54" points="21.4285714 117.857143 75 117.857143 75 29.0816327 21.4285714 29.0816327"></polygon>
            <g id="Group-16">
                <g id="Group-6" transform="translate(45.222635, 0.000000)">
                    <mask id="mask-18" fill="white">
                        <use xlink:href="#path-17"></use>
                    </mask>
                    <g id="Clip-5"></g>
                    <path d="M2.22589981,0.697110594 C2.22367347,0.697110594 2.21922078,0.692653812 2.21922078,0.685968637 C2.21922078,0.679283463 2.22367347,0.674826681 2.22589981,0.674826681 C2.2303525,0.674826681 2.23257885,0.679283463 2.23257885,0.685968637 C2.23257885,0.692653812 2.2303525,0.697110594 2.22589981,0.697110594" id="Fill-4" fill="#4A4C54" mask="url(#mask-18)"></path>
                </g>
                <g id="Group-9" transform="translate(45.222635, 145.543217)">
                    <mask id="mask-20" fill="white">
                        <use xlink:href="#path-19"></use>
                    </mask>
                    <g id="Clip-8"></g>
                    <path d="M2.21944341,2.22772284 C2.21499072,2.22772284 2.21276438,2.22326606 2.21276438,2.21658088 C2.21276438,2.20989571 2.21499072,2.20543893 2.21944341,2.20543893 C2.22166976,2.20543893 2.22612245,2.20989571 2.22612245,2.21658088 C2.22612245,2.22326606 2.22166976,2.22772284 2.21944341,2.22772284" id="Fill-7" fill="#4A4C54" mask="url(#mask-20)"></path>
                </g>
                <g id="Group-12" transform="translate(0.000000, 72.006303)">
                    <mask id="mask-22" fill="white">
                        <use xlink:href="#path-21"></use>
                    </mask>
                    <g id="Clip-11"></g>
                    <path d="M0.703079777,1.97747449 C0.698627087,1.97747449 0.696400742,1.97301771 0.696400742,1.96633253 C0.696400742,1.95964736 0.698627087,1.95519058 0.703079777,1.95519058 C0.705306122,1.95519058 0.709758813,1.95964736 0.709758813,1.96633253 C0.709758813,1.97301771 0.705306122,1.97747449 0.703079777,1.97747449" id="Fill-10" fill="#4A4C54" mask="url(#mask-22)"></path>
                </g>
                <g id="Group-15" transform="translate(91.975881, 72.006303)">
                    <mask id="mask-24" fill="white">
                        <use xlink:href="#path-23"></use>
                    </mask>
                    <g id="Clip-14"></g>
                    <path d="M2.21944341,1.96655537 C2.21499072,1.96655537 2.21276438,1.96209859 2.21276438,1.95541342 C2.21276438,1.94872824 2.21499072,1.94427146 2.21944341,1.94427146 C2.22166976,1.94427146 2.22612245,1.94872824 2.22612245,1.95541342 C2.22612245,1.96209859 2.22166976,1.96655537 2.21944341,1.96655537" id="Fill-13" fill="#4A4C54" mask="url(#mask-24)"></path>
                </g>
            </g>
        </g>
        <g id="Group-8" transform="translate(481.000000, 171.000000)">
            <g id="Group-3" transform="translate(0.000000, 0.591061)">
                <mask id="mask-26" fill="white">
                    <use xlink:href="#path-25"></use>
                </mask>
                <g id="Clip-2"></g>
                <path d="M19.0429762,0.00937142857 C8.52571429,0.00937142857 0.000119047619,8.61366447 0.000119047619,19.2280088 C0.000119047619,29.8423531 8.52571429,38.4466462 19.0429762,38.4466462 C29.5596429,38.4466462 38.0858333,29.8423531 38.0858333,19.2280088 C38.0858333,8.61366447 29.5596429,0.00937142857 19.0429762,0.00937142857" id="Fill-1" fill="#FF0000" mask="url(#mask-26)"></path>
            </g>
            <path d="M27.153631,11.6336073 L10.9322024,28.0047722" id="Stroke-4" stroke="#FFFFFF" stroke-width="2.52307692"></path>
            <path d="M27.153631,28.0047722 L10.9322024,11.6336073" id="Stroke-6" stroke="#FFFFFF" stroke-width="2.52307692"></path>
        </g>
        <g id="Group-17" transform="translate(480.000000, 127.000000)">
            <path d="M20.0028824,1.16666667 C9.60994118,1.16666667 1.18405882,9.46985507 1.18405882,19.7127536 C1.18405882,29.9556522 9.60994118,38.2588406 20.0028824,38.2588406 C30.3964118,38.2588406 38.8217059,29.9556522 38.8217059,19.7127536 C38.8217059,9.46985507 30.3964118,1.16666667 20.0028824,1.16666667" id="Fill-1" fill="#00AD42"></path>
            <polyline id="Stroke-3" stroke="#FFFFFF" stroke-width="2.39999986" points="29.5148824 13.5925217 18.3284118 24.6168696 11.3948824 17.7832464"></polyline>
            <g id="Group-7" transform="translate(0.000000, 19.136174)">
                <mask id="mask-28" fill="white">
                    <use xlink:href="#path-27"></use>
                </mask>
                <g id="Clip-6"></g>
                <path d="M0.594,0.576695652 C0.594,0.578434783 0.592823529,0.579594203 0.591058824,0.579594203 C0.589882353,0.579594203 0.588117647,0.578434783 0.588117647,0.576695652 C0.588117647,0.574956522 0.589882353,0.573797101 0.591058824,0.573797101 C0.592823529,0.573797101 0.594,0.574956522 0.594,0.576695652" id="Fill-5" fill="#4A4C54" mask="url(#mask-28)"></path>
            </g>
            <g id="Group-10" transform="translate(38.823529, 19.136174)">
                <mask id="mask-30" fill="white">
                    <use xlink:href="#path-29"></use>
                </mask>
                <g id="Clip-9"></g>
                <path d="M0.594,0.579536232 C0.594,0.581275362 0.592823529,0.582434783 0.591058824,0.582434783 C0.589294118,0.582434783 0.588117647,0.581275362 0.588117647,0.579536232 C0.588117647,0.578376812 0.589294118,0.576637681 0.591058824,0.576637681 C0.592823529,0.576637681 0.594,0.578376812 0.594,0.579536232" id="Fill-8" fill="#4A4C54" mask="url(#mask-30)"></path>
            </g>
            <g id="Group-13" transform="translate(19.411765, 38.266609)">
                <mask id="mask-32" fill="white">
                    <use xlink:href="#path-31"></use>
                </mask>
                <g id="Clip-12"></g>
                <path d="M0.527941176,0.576695652 C0.527941176,0.578434783 0.526764706,0.579594203 0.525,0.579594203 C0.523823529,0.579594203 0.522058824,0.578434783 0.522058824,0.576695652 C0.522058824,0.574956522 0.523823529,0.573797101 0.525,0.573797101 C0.526764706,0.573797101 0.527941176,0.574956522 0.527941176,0.576695652" id="Fill-11" fill="#4A4C54" mask="url(#mask-32)"></path>
            </g>
            <g id="Group-16" transform="translate(19.411765, 0.005739)">
                <mask id="mask-34" fill="white">
                    <use xlink:href="#path-33"></use>
                </mask>
                <g id="Clip-15"></g>
                <path d="M0.525058824,0.576695652 C0.525058824,0.578434783 0.523882353,0.579594203 0.522117647,0.579594203 C0.520352941,0.579594203 0.519176471,0.578434783 0.519176471,0.576695652 C0.519176471,0.574956522 0.520352941,0.573797101 0.522117647,0.573797101 C0.523882353,0.573797101 0.525058824,0.574956522 0.525058824,0.576695652" id="Fill-14" fill="#4A4C54" mask="url(#mask-34)"></path>
            </g>
        </g>
        <g id="Group-16" transform="translate(144.000000, 96.000000)">
            <polygon id="Fill-1" fill="#4A4C54" points="2.21283176 145.614485 143.421502 145.614485 143.421502 4.40933824 2.21283176 4.40933824"></polygon>
            <g id="Group-15" transform="translate(0.000000, 0.021838)">
                <path d="M19.8607717,17.6208088 C19.8607717,20.0561029 17.8840048,22.0325735 15.4483455,22.0325735 C13.0126862,22.0325735 11.0359193,20.0561029 11.0359193,17.6208088 C11.0359193,15.1855147 13.0126862,13.2090441 15.4483455,13.2090441 C17.8840048,13.2090441 19.8607717,15.1855147 19.8607717,17.6208088" id="Fill-2" fill="#FFFFFF"></path>
                <path d="M37.5104767,17.6208088 C37.5104767,20.0561029 35.5337097,22.0325735 33.0980505,22.0325735 C30.6623912,22.0325735 28.6856242,20.0561029 28.6856242,17.6208088 C28.6856242,15.1855147 30.6623912,13.2090441 33.0980505,13.2090441 C35.5337097,13.2090441 37.5104767,15.1855147 37.5104767,17.6208088" id="Fill-4" fill="#FFFFFF"></path>
                <path d="M55.1601817,17.6208088 C55.1601817,20.0561029 53.1834147,22.0325735 50.7477554,22.0325735 C48.3120961,22.0325735 46.3353292,20.0561029 46.3353292,17.6208088 C46.3353292,15.1855147 48.3120961,13.2090441 50.7477554,13.2090441 C53.1834147,13.2090441 55.1601817,15.1855147 55.1601817,17.6208088" id="Fill-6" fill="#FFFFFF"></path>
                <g id="Stroke-8-Clipped">
                    <mask id="mask-36" fill="white">
                        <use xlink:href="#path-35"></use>
                    </mask>
                    <g id="path-1"></g>
                    <polygon id="Stroke-8" stroke="#FFFFFF" stroke-width="5.20000029" mask="url(#mask-36)" points="25.1155302 121.546324 120.518804 121.546324 120.518804 98.5257353 25.1155302 98.5257353"></polygon>
                </g>
                <g id="Stroke-10-Clipped">
                    <mask id="mask-38" fill="white">
                        <use xlink:href="#path-37"></use>
                    </mask>
                    <g id="path-1"></g>
                    <polygon id="Stroke-10" stroke="#FFFFFF" stroke-width="5.20000029" mask="url(#mask-38)" points="25.1155302 80.8852941 120.518804 80.8852941 120.518804 57.8647059 25.1155302 57.8647059"></polygon>
                </g>
                <g id="Fill-11-Clipped">
                    <mask id="mask-40" fill="white">
                        <use xlink:href="#path-39"></use>
                    </mask>
                    <g id="path-1"></g>
                    <path d="M0.0220621312,74.98875 C0.0220621312,74.9953676 0.017649705,74.9997794 0.0110310656,74.9997794 C0.00441242624,74.9997794 -2.22044605e-16,74.9953676 -2.22044605e-16,74.98875 C-2.22044605e-16,74.9821324 0.00441242624,74.9777206 0.0110310656,74.9777206 C0.017649705,74.9777206 0.0220621312,74.9821324 0.0220621312,74.98875" id="Fill-11" fill="#4A4C54" mask="url(#mask-40)"></path>
                </g>
                <g id="Fill-12-Clipped">
                    <mask id="mask-42" fill="white">
                        <use xlink:href="#path-41"></use>
                    </mask>
                    <g id="path-1"></g>
                    <path d="M145.632128,74.9995588 C145.632128,75.0061765 145.627716,75.0105882 145.621097,75.0105882 C145.614478,75.0105882 145.610066,75.0061765 145.610066,74.9995588 C145.610066,74.9929412 145.614478,74.9885294 145.621097,74.9885294 C145.627716,74.9885294 145.632128,74.9929412 145.632128,74.9995588" id="Fill-12" fill="#4A4C54" mask="url(#mask-42)"></path>
                </g>
                <g id="Fill-13-Clipped">
                    <mask id="mask-44" fill="white">
                        <use xlink:href="#path-43"></use>
                    </mask>
                    <g id="path-1"></g>
                    <path d="M72.5793373,147.782868 C72.5793373,147.789485 72.5749249,147.793897 72.5683063,147.793897 C72.5616876,147.793897 72.5572752,147.789485 72.5572752,147.782868 C72.5572752,147.77625 72.5616876,147.771838 72.5683063,147.771838 C72.5749249,147.771838 72.5793373,147.77625 72.5793373,147.782868" id="Fill-13" fill="#4A4C54" mask="url(#mask-44)"></path>
                </g>
                <g id="Fill-14-Clipped">
                    <mask id="mask-46" fill="white">
                        <use xlink:href="#path-45"></use>
                    </mask>
                    <g id="path-1"></g>
                    <path d="M72.5687475,2.19463235 C72.5687475,2.20125 72.5643351,2.20566176 72.5577165,2.20566176 C72.5510978,2.20566176 72.5466854,2.20125 72.5466854,2.19463235 C72.5466854,2.18801471 72.5510978,2.18360294 72.5577165,2.18360294 C72.5643351,2.18360294 72.5687475,2.18801471 72.5687475,2.19463235" id="Fill-14" fill="#4A4C54" mask="url(#mask-46)"></path>
                </g>
            </g>
        </g>
        <path d="M376.903,50 L376.903,37.4 L379.261,37.4 L383.095,43.358 L386.929,37.4 L389.287,37.4 L389.287,50 L387.073,50 L387.073,40.964 L383.095,46.904 L383.023,46.904 L379.081,41 L379.081,50 L376.903,50 Z M395.551,50.198 C393.409,50.198 392.167,48.758 392.167,46.544 L392.167,40.496 L394.345,40.496 L394.345,45.896 C394.345,47.372 395.083,48.2 396.379,48.2 C397.639,48.2 398.521,47.336 398.521,45.86 L398.521,40.496 L400.717,40.496 L400.717,50 L398.521,50 L398.521,48.524 C397.909,49.424 397.027,50.198 395.551,50.198 Z M403.561,50 L403.561,36.86 L405.739,36.86 L405.739,50 L403.561,50 Z M411.769,50.162 C410.167,50.162 409.033,49.46 409.033,47.372 L409.033,42.368 L407.827,42.368 L407.827,40.496 L409.033,40.496 L409.033,37.886 L411.211,37.886 L411.211,40.496 L413.767,40.496 L413.767,42.368 L411.211,42.368 L411.211,47.03 C411.211,47.876 411.643,48.218 412.381,48.218 C412.867,48.218 413.299,48.11 413.731,47.894 L413.731,49.676 C413.191,49.982 412.597,50.162 411.769,50.162 Z M416.017,39.038 L416.017,36.968 L418.357,36.968 L418.357,39.038 L416.017,39.038 Z M416.107,50 L416.107,40.496 L418.285,40.496 L418.285,50 L416.107,50 Z M420.769,45.554 L420.769,43.412 L426.097,43.412 L426.097,45.554 L420.769,45.554 Z M428.725,50 L428.725,37.4 L438.103,37.4 L438.103,39.416 L430.939,39.416 L430.939,42.854 L437.293,42.854 L437.293,44.87 L430.939,44.87 L430.939,50 L428.725,50 Z M442.567,50.198 C440.785,50.198 439.201,49.172 439.201,47.264 L439.201,47.228 C439.201,45.176 440.803,44.168 443.125,44.168 C444.187,44.168 444.943,44.33 445.681,44.564 L445.681,44.33 C445.681,42.98 444.853,42.26 443.323,42.26 C442.261,42.26 441.469,42.494 440.605,42.854 L440.029,41.144 C441.073,40.676 442.099,40.37 443.611,40.37 C445.033,40.37 446.095,40.748 446.761,41.432 C447.463,42.116 447.787,43.124 447.787,44.366 L447.787,50 L445.663,50 L445.663,48.812 C445.015,49.586 444.025,50.198 442.567,50.198 Z M443.179,48.614 C444.619,48.614 445.717,47.786 445.717,46.58 L445.717,45.932 C445.159,45.716 444.421,45.554 443.557,45.554 C442.153,45.554 441.325,46.148 441.325,47.138 L441.325,47.174 C441.325,48.092 442.135,48.614 443.179,48.614 Z M454.789,50.216 C451.963,50.216 449.875,48.002 449.875,45.302 L449.875,45.266 C449.875,42.566 451.963,40.298 454.825,40.298 C456.607,40.298 457.723,40.964 458.623,41.936 L457.255,43.394 C456.589,42.692 455.887,42.206 454.807,42.206 C453.223,42.206 452.053,43.574 452.053,45.23 L452.053,45.266 C452.053,46.958 453.223,48.308 454.897,48.308 C455.923,48.308 456.679,47.84 457.363,47.138 L458.677,48.434 C457.741,49.478 456.643,50.216 454.789,50.216 Z M463.861,50.162 C462.259,50.162 461.125,49.46 461.125,47.372 L461.125,42.368 L459.919,42.368 L459.919,40.496 L461.125,40.496 L461.125,37.886 L463.303,37.886 L463.303,40.496 L465.859,40.496 L465.859,42.368 L463.303,42.368 L463.303,47.03 C463.303,47.876 463.735,48.218 464.473,48.218 C464.959,48.218 465.391,48.11 465.823,47.894 L465.823,49.676 C465.283,49.982 464.689,50.162 463.861,50.162 Z M472.321,50.216 C469.423,50.216 467.281,48.002 467.281,45.302 L467.281,45.266 C467.281,42.548 469.441,40.298 472.357,40.298 C475.273,40.298 477.415,42.512 477.415,45.23 L477.415,45.266 C477.415,47.966 475.255,50.216 472.321,50.216 Z M472.357,48.308 C474.121,48.308 475.237,46.94 475.237,45.302 L475.237,45.266 C475.237,43.592 474.031,42.206 472.321,42.206 C470.575,42.206 469.459,43.574 469.459,45.23 L469.459,45.266 C469.459,46.922 470.665,48.308 472.357,48.308 Z M479.629,50 L479.629,40.496 L481.807,40.496 L481.807,42.638 C482.401,41.216 483.499,40.244 485.173,40.316 L485.173,42.62 L485.047,42.62 C483.139,42.62 481.807,43.862 481.807,46.382 L481.807,50 L479.629,50 Z M491.635,50 L497.179,37.31 L499.231,37.31 L504.775,50 L502.435,50 L501.157,46.958 L495.199,46.958 L493.903,50 L491.635,50 Z M496.009,44.996 L500.347,44.996 L498.169,39.956 L496.009,44.996 Z M509.779,50.198 C507.637,50.198 506.395,48.758 506.395,46.544 L506.395,40.496 L508.573,40.496 L508.573,45.896 C508.573,47.372 509.311,48.2 510.607,48.2 C511.867,48.2 512.749,47.336 512.749,45.86 L512.749,40.496 L514.945,40.496 L514.945,50 L512.749,50 L512.749,48.524 C512.137,49.424 511.255,50.198 509.779,50.198 Z M520.849,50.162 C519.247,50.162 518.113,49.46 518.113,47.372 L518.113,42.368 L516.907,42.368 L516.907,40.496 L518.113,40.496 L518.113,37.886 L520.291,37.886 L520.291,40.496 L522.847,40.496 L522.847,42.368 L520.291,42.368 L520.291,47.03 C520.291,47.876 520.723,48.218 521.461,48.218 C521.947,48.218 522.379,48.11 522.811,47.894 L522.811,49.676 C522.271,49.982 521.677,50.162 520.849,50.162 Z M525.061,50 L525.061,36.86 L527.239,36.86 L527.239,41.954 C527.851,41.072 528.733,40.298 530.209,40.298 C532.351,40.298 533.593,41.738 533.593,43.934 L533.593,50 L531.415,50 L531.415,44.6 C531.415,43.124 530.677,42.278 529.381,42.278 C528.121,42.278 527.239,43.16 527.239,44.636 L527.239,50 L525.061,50 Z M540.577,50.216 C537.823,50.216 535.699,48.218 535.699,45.284 L535.699,45.248 C535.699,42.53 537.625,40.298 540.343,40.298 C543.367,40.298 544.897,42.674 544.897,45.41 C544.897,45.608 544.879,45.806 544.861,46.022 L537.877,46.022 C538.111,47.57 539.209,48.434 540.613,48.434 C541.675,48.434 542.431,48.038 543.187,47.3 L544.465,48.434 C543.565,49.514 542.323,50.216 540.577,50.216 Z M537.859,44.582 L542.737,44.582 C542.593,43.178 541.765,42.08 540.325,42.08 C538.993,42.08 538.057,43.106 537.859,44.582 Z M547.093,50 L547.093,40.496 L549.271,40.496 L549.271,41.954 C549.883,41.072 550.765,40.298 552.241,40.298 C554.383,40.298 555.625,41.738 555.625,43.934 L555.625,50 L553.447,50 L553.447,44.6 C553.447,43.124 552.709,42.278 551.413,42.278 C550.153,42.278 549.271,43.16 549.271,44.636 L549.271,50 L547.093,50 Z M561.439,50.162 C559.837,50.162 558.703,49.46 558.703,47.372 L558.703,42.368 L557.497,42.368 L557.497,40.496 L558.703,40.496 L558.703,37.886 L560.881,37.886 L560.881,40.496 L563.437,40.496 L563.437,42.368 L560.881,42.368 L560.881,47.03 C560.881,47.876 561.313,48.218 562.051,48.218 C562.537,48.218 562.969,48.11 563.401,47.894 L563.401,49.676 C562.861,49.982 562.267,50.162 561.439,50.162 Z M565.687,39.038 L565.687,36.968 L568.027,36.968 L568.027,39.038 L565.687,39.038 Z M565.777,50 L565.777,40.496 L567.955,40.496 L567.955,50 L565.777,50 Z M575.191,50.216 C572.365,50.216 570.277,48.002 570.277,45.302 L570.277,45.266 C570.277,42.566 572.365,40.298 575.227,40.298 C577.009,40.298 578.125,40.964 579.025,41.936 L577.657,43.394 C576.991,42.692 576.289,42.206 575.209,42.206 C573.625,42.206 572.455,43.574 572.455,45.23 L572.455,45.266 C572.455,46.958 573.625,48.308 575.299,48.308 C576.325,48.308 577.081,47.84 577.765,47.138 L579.079,48.434 C578.143,49.478 577.045,50.216 575.191,50.216 Z M583.813,50.198 C582.031,50.198 580.447,49.172 580.447,47.264 L580.447,47.228 C580.447,45.176 582.049,44.168 584.371,44.168 C585.433,44.168 586.189,44.33 586.927,44.564 L586.927,44.33 C586.927,42.98 586.099,42.26 584.569,42.26 C583.507,42.26 582.715,42.494 581.851,42.854 L581.275,41.144 C582.319,40.676 583.345,40.37 584.857,40.37 C586.279,40.37 587.341,40.748 588.007,41.432 C588.709,42.116 589.033,43.124 589.033,44.366 L589.033,50 L586.909,50 L586.909,48.812 C586.261,49.586 585.271,50.198 583.813,50.198 Z M584.425,48.614 C585.865,48.614 586.963,47.786 586.963,46.58 L586.963,45.932 C586.405,45.716 585.667,45.554 584.803,45.554 C583.399,45.554 582.571,46.148 582.571,47.138 L582.571,47.174 C582.571,48.092 583.381,48.614 584.425,48.614 Z M594.739,50.162 C593.137,50.162 592.003,49.46 592.003,47.372 L592.003,42.368 L590.797,42.368 L590.797,40.496 L592.003,40.496 L592.003,37.886 L594.181,37.886 L594.181,40.496 L596.737,40.496 L596.737,42.368 L594.181,42.368 L594.181,47.03 C594.181,47.876 594.613,48.218 595.351,48.218 C595.837,48.218 596.269,48.11 596.701,47.894 L596.701,49.676 C596.161,49.982 595.567,50.162 594.739,50.162 Z M598.987,39.038 L598.987,36.968 L601.327,36.968 L601.327,39.038 L598.987,39.038 Z M599.077,50 L599.077,40.496 L601.255,40.496 L601.255,50 L599.077,50 Z M608.617,50.216 C605.719,50.216 603.577,48.002 603.577,45.302 L603.577,45.266 C603.577,42.548 605.737,40.298 608.653,40.298 C611.569,40.298 613.711,42.512 613.711,45.23 L613.711,45.266 C613.711,47.966 611.551,50.216 608.617,50.216 Z M608.653,48.308 C610.417,48.308 611.533,46.94 611.533,45.302 L611.533,45.266 C611.533,43.592 610.327,42.206 608.617,42.206 C606.871,42.206 605.755,43.574 605.755,45.23 L605.755,45.266 C605.755,46.922 606.961,48.308 608.653,48.308 Z M615.925,50 L615.925,40.496 L618.103,40.496 L618.103,41.954 C618.715,41.072 619.597,40.298 621.073,40.298 C623.215,40.298 624.457,41.738 624.457,43.934 L624.457,50 L622.279,50 L622.279,44.6 C622.279,43.124 621.541,42.278 620.245,42.278 C618.985,42.278 618.103,43.16 618.103,44.636 L618.103,50 L615.925,50 Z" id="Multi-Factor-Authent" fill="#000000"></path>
        <path d="M124.166,281.18 C122.258,281.18 120.332,280.514 118.82,279.164 L120.458,277.202 C121.592,278.138 122.78,278.732 124.22,278.732 C125.354,278.732 126.038,278.282 126.038,277.544 L126.038,277.508 C126.038,276.806 125.606,276.446 123.5,275.906 C120.962,275.258 119.324,274.556 119.324,272.054 L119.324,272.018 C119.324,269.732 121.16,268.22 123.734,268.22 C125.57,268.22 127.136,268.796 128.414,269.822 L126.974,271.91 C125.858,271.136 124.76,270.668 123.698,270.668 C122.636,270.668 122.078,271.154 122.078,271.766 L122.078,271.802 C122.078,272.63 122.618,272.9 124.796,273.458 C127.352,274.124 128.792,275.042 128.792,277.238 L128.792,277.274 C128.792,279.776 126.884,281.18 124.166,281.18 Z M134.084,281.162 C132.41,281.162 131.276,280.496 131.276,278.264 L131.276,273.692 L130.124,273.692 L130.124,271.352 L131.276,271.352 L131.276,268.886 L134.012,268.886 L134.012,271.352 L136.28,271.352 L136.28,273.692 L134.012,273.692 L134.012,277.814 C134.012,278.444 134.282,278.75 134.894,278.75 C135.398,278.75 135.848,278.624 136.244,278.408 L136.244,280.604 C135.668,280.946 135.002,281.162 134.084,281.162 Z M142.598,281.216 C139.7,281.216 137.558,279.182 137.558,276.23 L137.558,276.194 C137.558,273.44 139.52,271.172 142.328,271.172 C145.55,271.172 147.026,273.674 147.026,276.41 C147.026,276.626 147.008,276.878 146.99,277.13 L140.276,277.13 C140.546,278.372 141.41,279.02 142.634,279.02 C143.552,279.02 144.218,278.732 144.974,278.03 L146.54,279.416 C145.64,280.532 144.344,281.216 142.598,281.216 Z M140.24,275.42 L144.362,275.42 C144.2,274.196 143.48,273.368 142.328,273.368 C141.194,273.368 140.456,274.178 140.24,275.42 Z M149.06,283.88 L149.06,271.352 L151.796,271.352 L151.796,272.738 C152.462,271.838 153.38,271.172 154.802,271.172 C157.052,271.172 159.194,272.936 159.194,276.158 L159.194,276.194 C159.194,279.416 157.088,281.18 154.802,281.18 C153.344,281.18 152.444,280.514 151.796,279.74 L151.796,283.88 L149.06,283.88 Z M154.1,278.858 C155.378,278.858 156.458,277.814 156.458,276.194 L156.458,276.158 C156.458,274.556 155.378,273.494 154.1,273.494 C152.822,273.494 151.76,274.556 151.76,276.158 L151.76,276.194 C151.76,277.796 152.822,278.858 154.1,278.858 Z M168.59,281 L168.59,271.118 L166.394,271.658 L165.818,269.39 L169.436,268.31 L171.326,268.31 L171.326,281 L168.59,281 Z M174.188,274.232 L174.188,271.352 L177.104,271.352 L177.104,274.232 L174.188,274.232 Z M174.188,281 L174.188,278.12 L177.104,278.12 L177.104,281 L174.188,281 Z M190.532,281.198 C187.418,281.198 185.294,279.29 185.294,275.726 L185.294,268.4 L186.716,268.4 L186.716,275.636 C186.716,278.354 188.174,279.884 190.568,279.884 C192.89,279.884 194.366,278.48 194.366,275.726 L194.366,268.4 L195.788,268.4 L195.788,275.618 C195.788,279.29 193.682,281.198 190.532,281.198 Z M201.998,281.18 C200.666,281.18 199.19,280.658 198.146,279.812 L198.848,278.822 C199.856,279.578 200.972,280.01 202.07,280.01 C203.186,280.01 203.996,279.434 203.996,278.534 L203.996,278.498 C203.996,277.562 202.898,277.202 201.674,276.86 C200.216,276.446 198.596,275.942 198.596,274.232 L198.596,274.196 C198.596,272.594 199.928,271.532 201.764,271.532 C202.898,271.532 204.158,271.928 205.112,272.558 L204.482,273.602 C203.618,273.044 202.628,272.702 201.728,272.702 C200.63,272.702 199.928,273.278 199.928,274.052 L199.928,274.088 C199.928,274.97 201.08,275.312 202.322,275.69 C203.762,276.122 205.31,276.68 205.31,278.354 L205.31,278.39 C205.31,280.154 203.852,281.18 201.998,281.18 Z M211.952,281.216 C209.396,281.216 207.308,279.254 207.308,276.374 L207.308,276.338 C207.308,273.656 209.198,271.496 211.772,271.496 C214.526,271.496 216.11,273.692 216.11,276.41 C216.11,276.59 216.11,276.698 216.092,276.86 L208.712,276.86 C208.91,278.876 210.332,280.01 211.988,280.01 C213.266,280.01 214.166,279.488 214.922,278.696 L215.786,279.47 C214.85,280.514 213.716,281.216 211.952,281.216 Z M208.712,275.834 L214.706,275.834 C214.562,274.142 213.59,272.666 211.736,272.666 C210.116,272.666 208.892,274.016 208.712,275.834 Z M218.54,281 L218.54,271.694 L219.926,271.694 L219.926,274.124 C220.61,272.576 221.96,271.46 223.724,271.532 L223.724,273.026 L223.616,273.026 C221.582,273.026 219.926,274.484 219.926,277.292 L219.926,281 L218.54,281 Z M231.23,281 L231.23,271.694 L232.616,271.694 L232.616,273.314 C233.228,272.306 234.2,271.496 235.802,271.496 C238.052,271.496 239.366,273.008 239.366,275.222 L239.366,281 L237.98,281 L237.98,275.564 C237.98,273.836 237.044,272.756 235.406,272.756 C233.804,272.756 232.616,273.926 232.616,275.672 L232.616,281 L231.23,281 Z M245.09,281.198 C243.362,281.198 241.616,280.208 241.616,278.3 L241.616,278.264 C241.616,276.302 243.236,275.258 245.594,275.258 C246.782,275.258 247.628,275.42 248.456,275.654 L248.456,275.33 C248.456,273.656 247.43,272.792 245.684,272.792 C244.586,272.792 243.722,273.08 242.858,273.476 L242.444,272.342 C243.47,271.874 244.478,271.568 245.828,271.568 C247.142,271.568 248.15,271.91 248.834,272.594 C249.464,273.224 249.788,274.124 249.788,275.312 L249.788,281 L248.456,281 L248.456,279.596 C247.808,280.442 246.728,281.198 245.09,281.198 Z M245.36,280.1 C247.07,280.1 248.474,279.056 248.474,277.58 L248.474,276.68 C247.79,276.482 246.872,276.284 245.738,276.284 C243.992,276.284 243.02,277.04 243.02,278.21 L243.02,278.246 C243.02,279.416 244.1,280.1 245.36,280.1 Z M252.74,281 L252.74,271.694 L254.126,271.694 L254.126,273.26 C254.738,272.342 255.566,271.496 257.132,271.496 C258.644,271.496 259.616,272.306 260.12,273.35 C260.786,272.324 261.776,271.496 263.396,271.496 C265.538,271.496 266.852,272.936 266.852,275.24 L266.852,281 L265.466,281 L265.466,275.564 C265.466,273.764 264.566,272.756 263.054,272.756 C261.65,272.756 260.498,273.8 260.498,275.636 L260.498,281 L259.112,281 L259.112,275.528 C259.112,273.782 258.194,272.756 256.718,272.756 C255.242,272.756 254.126,273.98 254.126,275.69 L254.126,281 L252.74,281 Z M273.926,281.216 C271.37,281.216 269.282,279.254 269.282,276.374 L269.282,276.338 C269.282,273.656 271.172,271.496 273.746,271.496 C276.5,271.496 278.084,273.692 278.084,276.41 C278.084,276.59 278.084,276.698 278.066,276.86 L270.686,276.86 C270.884,278.876 272.306,280.01 273.962,280.01 C275.24,280.01 276.14,279.488 276.896,278.696 L277.76,279.47 C276.824,280.514 275.69,281.216 273.926,281.216 Z M270.686,275.834 L276.68,275.834 C276.536,274.142 275.564,272.666 273.71,272.666 C272.09,272.666 270.866,274.016 270.686,275.834 Z M288.686,281.198 C286.958,281.198 285.212,280.208 285.212,278.3 L285.212,278.264 C285.212,276.302 286.832,275.258 289.19,275.258 C290.378,275.258 291.224,275.42 292.052,275.654 L292.052,275.33 C292.052,273.656 291.026,272.792 289.28,272.792 C288.182,272.792 287.318,273.08 286.454,273.476 L286.04,272.342 C287.066,271.874 288.074,271.568 289.424,271.568 C290.738,271.568 291.746,271.91 292.43,272.594 C293.06,273.224 293.384,274.124 293.384,275.312 L293.384,281 L292.052,281 L292.052,279.596 C291.404,280.442 290.324,281.198 288.686,281.198 Z M288.956,280.1 C290.666,280.1 292.07,279.056 292.07,277.58 L292.07,276.68 C291.386,276.482 290.468,276.284 289.334,276.284 C287.588,276.284 286.616,277.04 286.616,278.21 L286.616,278.246 C286.616,279.416 287.696,280.1 288.956,280.1 Z M296.336,281 L296.336,271.694 L297.722,271.694 L297.722,273.314 C298.334,272.306 299.306,271.496 300.908,271.496 C303.158,271.496 304.472,273.008 304.472,275.222 L304.472,281 L303.086,281 L303.086,275.564 C303.086,273.836 302.15,272.756 300.512,272.756 C298.91,272.756 297.722,273.926 297.722,275.672 L297.722,281 L296.336,281 Z M311.33,281.198 C309.098,281.198 306.884,279.434 306.884,276.374 L306.884,276.338 C306.884,273.296 309.098,271.496 311.33,271.496 C313.058,271.496 314.174,272.432 314.894,273.476 L314.894,267.86 L316.28,267.86 L316.28,281 L314.894,281 L314.894,279.128 C314.138,280.244 313.04,281.198 311.33,281.198 Z M311.582,279.956 C313.31,279.956 314.948,278.498 314.948,276.356 L314.948,276.32 C314.948,274.178 313.31,272.738 311.582,272.738 C309.782,272.738 308.306,274.07 308.306,276.32 L308.306,276.356 C308.306,278.552 309.836,279.956 311.582,279.956 Z M139.7,306.88 L139.7,294.694 L141.086,294.694 L141.086,296.566 C141.842,295.45 142.94,294.496 144.65,294.496 C146.882,294.496 149.096,296.26 149.096,299.32 L149.096,299.356 C149.096,302.398 146.9,304.198 144.65,304.198 C142.922,304.198 141.806,303.262 141.086,302.218 L141.086,306.88 L139.7,306.88 Z M144.398,302.956 C146.198,302.956 147.674,301.624 147.674,299.374 L147.674,299.338 C147.674,297.142 146.162,295.738 144.398,295.738 C142.67,295.738 141.032,297.196 141.032,299.32 L141.032,299.356 C141.032,301.516 142.67,302.956 144.398,302.956 Z M154.424,304.198 C152.696,304.198 150.95,303.208 150.95,301.3 L150.95,301.264 C150.95,299.302 152.57,298.258 154.928,298.258 C156.116,298.258 156.962,298.42 157.79,298.654 L157.79,298.33 C157.79,296.656 156.764,295.792 155.018,295.792 C153.92,295.792 153.056,296.08 152.192,296.476 L151.778,295.342 C152.804,294.874 153.812,294.568 155.162,294.568 C156.476,294.568 157.484,294.91 158.168,295.594 C158.798,296.224 159.122,297.124 159.122,298.312 L159.122,304 L157.79,304 L157.79,302.596 C157.142,303.442 156.062,304.198 154.424,304.198 Z M154.694,303.1 C156.404,303.1 157.808,302.056 157.808,300.58 L157.808,299.68 C157.124,299.482 156.206,299.284 155.072,299.284 C153.326,299.284 152.354,300.04 152.354,301.21 L152.354,301.246 C152.354,302.416 153.434,303.1 154.694,303.1 Z M165.152,304.18 C163.82,304.18 162.344,303.658 161.3,302.812 L162.002,301.822 C163.01,302.578 164.126,303.01 165.224,303.01 C166.34,303.01 167.15,302.434 167.15,301.534 L167.15,301.498 C167.15,300.562 166.052,300.202 164.828,299.86 C163.37,299.446 161.75,298.942 161.75,297.232 L161.75,297.196 C161.75,295.594 163.082,294.532 164.918,294.532 C166.052,294.532 167.312,294.928 168.266,295.558 L167.636,296.602 C166.772,296.044 165.782,295.702 164.882,295.702 C163.784,295.702 163.082,296.278 163.082,297.052 L163.082,297.088 C163.082,297.97 164.234,298.312 165.476,298.69 C166.916,299.122 168.464,299.68 168.464,301.354 L168.464,301.39 C168.464,303.154 167.006,304.18 165.152,304.18 Z M173.936,304.18 C172.604,304.18 171.128,303.658 170.084,302.812 L170.786,301.822 C171.794,302.578 172.91,303.01 174.008,303.01 C175.124,303.01 175.934,302.434 175.934,301.534 L175.934,301.498 C175.934,300.562 174.836,300.202 173.612,299.86 C172.154,299.446 170.534,298.942 170.534,297.232 L170.534,297.196 C170.534,295.594 171.866,294.532 173.702,294.532 C174.836,294.532 176.096,294.928 177.05,295.558 L176.42,296.602 C175.556,296.044 174.566,295.702 173.666,295.702 C172.568,295.702 171.866,296.278 171.866,297.052 L171.866,297.088 C171.866,297.97 173.018,298.312 174.26,298.69 C175.7,299.122 177.248,299.68 177.248,301.354 L177.248,301.39 C177.248,303.154 175.79,304.18 173.936,304.18 Z M182.018,304.072 L178.76,294.694 L180.236,294.694 L182.684,302.164 L185.186,294.658 L186.338,294.658 L188.858,302.164 L191.306,294.694 L192.746,294.694 L189.47,304.072 L188.264,304.072 L185.762,296.728 L183.242,304.072 L182.018,304.072 Z M198.848,304.216 C196.058,304.216 194.024,302.02 194.024,299.392 L194.024,299.356 C194.024,296.728 196.076,294.496 198.884,294.496 C201.674,294.496 203.726,296.692 203.726,299.32 L203.726,299.356 C203.726,301.984 201.656,304.216 198.848,304.216 Z M198.884,302.974 C200.9,302.974 202.304,301.354 202.304,299.392 L202.304,299.356 C202.304,297.358 200.81,295.72 198.848,295.72 C196.832,295.72 195.446,297.358 195.446,299.32 L195.446,299.356 C195.446,301.354 196.922,302.974 198.884,302.974 Z M206.228,304 L206.228,294.694 L207.614,294.694 L207.614,297.124 C208.298,295.576 209.648,294.46 211.412,294.532 L211.412,296.026 L211.304,296.026 C209.27,296.026 207.614,297.484 207.614,300.292 L207.614,304 L206.228,304 Z M217.046,304.198 C214.814,304.198 212.6,302.434 212.6,299.374 L212.6,299.338 C212.6,296.296 214.814,294.496 217.046,294.496 C218.774,294.496 219.89,295.432 220.61,296.476 L220.61,290.86 L221.996,290.86 L221.996,304 L220.61,304 L220.61,302.128 C219.854,303.244 218.756,304.198 217.046,304.198 Z M217.298,302.956 C219.026,302.956 220.664,301.498 220.664,299.356 L220.664,299.32 C220.664,297.178 219.026,295.738 217.298,295.738 C215.498,295.738 214.022,297.07 214.022,299.32 L214.022,299.356 C214.022,301.552 215.552,302.956 217.298,302.956 Z M234.56,304.216 C232.004,304.216 229.916,302.254 229.916,299.374 L229.916,299.338 C229.916,296.656 231.806,294.496 234.38,294.496 C237.134,294.496 238.718,296.692 238.718,299.41 C238.718,299.59 238.718,299.698 238.7,299.86 L231.32,299.86 C231.518,301.876 232.94,303.01 234.596,303.01 C235.874,303.01 236.774,302.488 237.53,301.696 L238.394,302.47 C237.458,303.514 236.324,304.216 234.56,304.216 Z M231.32,298.834 L237.314,298.834 C237.17,297.142 236.198,295.666 234.344,295.666 C232.724,295.666 231.5,297.016 231.32,298.834 Z M241.148,304 L241.148,294.694 L242.534,294.694 L242.534,296.314 C243.146,295.306 244.118,294.496 245.72,294.496 C247.97,294.496 249.284,296.008 249.284,298.222 L249.284,304 L247.898,304 L247.898,298.564 C247.898,296.836 246.962,295.756 245.324,295.756 C243.722,295.756 242.534,296.926 242.534,298.672 L242.534,304 L241.148,304 Z M255.35,304.162 C253.856,304.162 252.722,303.424 252.722,301.534 L252.722,295.918 L251.426,295.918 L251.426,294.694 L252.722,294.694 L252.722,291.886 L254.108,291.886 L254.108,294.694 L257.06,294.694 L257.06,295.918 L254.108,295.918 L254.108,301.354 C254.108,302.488 254.738,302.902 255.674,302.902 C256.142,302.902 256.538,302.812 257.024,302.578 L257.024,303.766 C256.538,304.018 256.016,304.162 255.35,304.162 Z M263.306,304.216 C260.75,304.216 258.662,302.254 258.662,299.374 L258.662,299.338 C258.662,296.656 260.552,294.496 263.126,294.496 C265.88,294.496 267.464,296.692 267.464,299.41 C267.464,299.59 267.464,299.698 267.446,299.86 L260.066,299.86 C260.264,301.876 261.686,303.01 263.342,303.01 C264.62,303.01 265.52,302.488 266.276,301.696 L267.14,302.47 C266.204,303.514 265.07,304.216 263.306,304.216 Z M260.066,298.834 L266.06,298.834 C265.916,297.142 264.944,295.666 263.09,295.666 C261.47,295.666 260.246,297.016 260.066,298.834 Z M269.894,304 L269.894,294.694 L271.28,294.694 L271.28,297.124 C271.964,295.576 273.314,294.46 275.078,294.532 L275.078,296.026 L274.97,296.026 C272.936,296.026 271.28,297.484 271.28,300.292 L271.28,304 L269.894,304 Z M280.856,304.216 C278.3,304.216 276.212,302.254 276.212,299.374 L276.212,299.338 C276.212,296.656 278.102,294.496 280.676,294.496 C283.43,294.496 285.014,296.692 285.014,299.41 C285.014,299.59 285.014,299.698 284.996,299.86 L277.616,299.86 C277.814,301.876 279.236,303.01 280.892,303.01 C282.17,303.01 283.07,302.488 283.826,301.696 L284.69,302.47 C283.754,303.514 282.62,304.216 280.856,304.216 Z M277.616,298.834 L283.61,298.834 C283.466,297.142 282.494,295.666 280.64,295.666 C279.02,295.666 277.796,297.016 277.616,298.834 Z M291.35,304.198 C289.118,304.198 286.904,302.434 286.904,299.374 L286.904,299.338 C286.904,296.296 289.118,294.496 291.35,294.496 C293.078,294.496 294.194,295.432 294.914,296.476 L294.914,290.86 L296.3,290.86 L296.3,304 L294.914,304 L294.914,302.128 C294.158,303.244 293.06,304.198 291.35,304.198 Z M291.602,302.956 C293.33,302.956 294.968,301.498 294.968,299.356 L294.968,299.32 C294.968,297.178 293.33,295.738 291.602,295.738 C289.802,295.738 288.326,297.07 288.326,299.32 L288.326,299.356 C288.326,301.552 289.856,302.956 291.602,302.956 Z" id="Step-1:-User-name-an" fill="#000000"></path>
        <path d="M402.764,281.18 C400.856,281.18 398.93,280.514 397.418,279.164 L399.056,277.202 C400.19,278.138 401.378,278.732 402.818,278.732 C403.952,278.732 404.636,278.282 404.636,277.544 L404.636,277.508 C404.636,276.806 404.204,276.446 402.098,275.906 C399.56,275.258 397.922,274.556 397.922,272.054 L397.922,272.018 C397.922,269.732 399.758,268.22 402.332,268.22 C404.168,268.22 405.734,268.796 407.012,269.822 L405.572,271.91 C404.456,271.136 403.358,270.668 402.296,270.668 C401.234,270.668 400.676,271.154 400.676,271.766 L400.676,271.802 C400.676,272.63 401.216,272.9 403.394,273.458 C405.95,274.124 407.39,275.042 407.39,277.238 L407.39,277.274 C407.39,279.776 405.482,281.18 402.764,281.18 Z M412.682,281.162 C411.008,281.162 409.874,280.496 409.874,278.264 L409.874,273.692 L408.722,273.692 L408.722,271.352 L409.874,271.352 L409.874,268.886 L412.61,268.886 L412.61,271.352 L414.878,271.352 L414.878,273.692 L412.61,273.692 L412.61,277.814 C412.61,278.444 412.88,278.75 413.492,278.75 C413.996,278.75 414.446,278.624 414.842,278.408 L414.842,280.604 C414.266,280.946 413.6,281.162 412.682,281.162 Z M421.196,281.216 C418.298,281.216 416.156,279.182 416.156,276.23 L416.156,276.194 C416.156,273.44 418.118,271.172 420.926,271.172 C424.148,271.172 425.624,273.674 425.624,276.41 C425.624,276.626 425.606,276.878 425.588,277.13 L418.874,277.13 C419.144,278.372 420.008,279.02 421.232,279.02 C422.15,279.02 422.816,278.732 423.572,278.03 L425.138,279.416 C424.238,280.532 422.942,281.216 421.196,281.216 Z M418.838,275.42 L422.96,275.42 C422.798,274.196 422.078,273.368 420.926,273.368 C419.792,273.368 419.054,274.178 418.838,275.42 Z M427.658,283.88 L427.658,271.352 L430.394,271.352 L430.394,272.738 C431.06,271.838 431.978,271.172 433.4,271.172 C435.65,271.172 437.792,272.936 437.792,276.158 L437.792,276.194 C437.792,279.416 435.686,281.18 433.4,281.18 C431.942,281.18 431.042,280.514 430.394,279.74 L430.394,283.88 L427.658,283.88 Z M432.698,278.858 C433.976,278.858 435.056,277.814 435.056,276.194 L435.056,276.158 C435.056,274.556 433.976,273.494 432.698,273.494 C431.42,273.494 430.358,274.556 430.358,276.158 L430.358,276.194 C430.358,277.796 431.42,278.858 432.698,278.858 Z M444.866,281 L444.866,278.804 L449.06,275.366 C450.626,274.07 451.238,273.386 451.238,272.342 C451.238,271.28 450.536,270.704 449.546,270.704 C448.574,270.704 447.908,271.244 446.972,272.396 L445.028,270.83 C446.27,269.138 447.476,268.22 449.726,268.22 C452.336,268.22 454.064,269.75 454.064,272.108 L454.064,272.144 C454.064,274.25 452.984,275.294 450.752,277.022 L448.7,278.606 L454.19,278.606 L454.19,281 L444.866,281 Z M456.404,274.232 L456.404,271.352 L459.32,271.352 L459.32,274.232 L456.404,274.232 Z M456.404,281 L456.404,278.12 L459.32,278.12 L459.32,281 L456.404,281 Z M467.708,281 L467.708,268.4 L472.424,268.4 C475.268,268.4 477.14,269.912 477.14,272.396 L477.14,272.432 C477.14,275.15 474.872,276.554 472.19,276.554 L469.13,276.554 L469.13,281 L467.708,281 Z M469.13,275.258 L472.244,275.258 C474.332,275.258 475.7,274.142 475.7,272.486 L475.7,272.45 C475.7,270.65 474.35,269.714 472.316,269.714 L469.13,269.714 L469.13,275.258 Z M479.534,269.66 L479.534,268.13 L481.118,268.13 L481.118,269.66 L479.534,269.66 Z M479.624,281 L479.624,271.694 L481.01,271.694 L481.01,281 L479.624,281 Z M484.232,281 L484.232,271.694 L485.618,271.694 L485.618,273.314 C486.23,272.306 487.202,271.496 488.804,271.496 C491.054,271.496 492.368,273.008 492.368,275.222 L492.368,281 L490.982,281 L490.982,275.564 C490.982,273.836 490.046,272.756 488.408,272.756 C486.806,272.756 485.618,273.926 485.618,275.672 L485.618,281 L484.232,281 Z M501.242,281 L501.242,272.918 L499.964,272.918 L499.964,271.712 L501.242,271.712 L501.242,270.902 C501.242,269.84 501.53,269.03 502.052,268.508 C502.52,268.04 503.204,267.788 504.05,267.788 C504.698,267.788 505.13,267.86 505.58,268.022 L505.58,269.228 C505.076,269.084 504.698,268.994 504.23,268.994 C503.15,268.994 502.61,269.642 502.61,270.974 L502.61,271.73 L505.562,271.73 L505.562,272.918 L502.628,272.918 L502.628,281 L501.242,281 Z M507.326,281 L507.326,271.694 L508.712,271.694 L508.712,274.124 C509.396,272.576 510.746,271.46 512.51,271.532 L512.51,273.026 L512.402,273.026 C510.368,273.026 508.712,274.484 508.712,277.292 L508.712,281 L507.326,281 Z M518.468,281.216 C515.678,281.216 513.644,279.02 513.644,276.392 L513.644,276.356 C513.644,273.728 515.696,271.496 518.504,271.496 C521.294,271.496 523.346,273.692 523.346,276.32 L523.346,276.356 C523.346,278.984 521.276,281.216 518.468,281.216 Z M518.504,279.974 C520.52,279.974 521.924,278.354 521.924,276.392 L521.924,276.356 C521.924,274.358 520.43,272.72 518.468,272.72 C516.452,272.72 515.066,274.358 515.066,276.32 L515.066,276.356 C515.066,278.354 516.542,279.974 518.504,279.974 Z M525.848,281 L525.848,271.694 L527.234,271.694 L527.234,273.26 C527.846,272.342 528.674,271.496 530.24,271.496 C531.752,271.496 532.724,272.306 533.228,273.35 C533.894,272.324 534.884,271.496 536.504,271.496 C538.646,271.496 539.96,272.936 539.96,275.24 L539.96,281 L538.574,281 L538.574,275.564 C538.574,273.764 537.674,272.756 536.162,272.756 C534.758,272.756 533.606,273.8 533.606,275.636 L533.606,281 L532.22,281 L532.22,275.528 C532.22,273.782 531.302,272.756 529.826,272.756 C528.35,272.756 527.234,273.98 527.234,275.69 L527.234,281 L525.848,281 Z M548.366,283.88 L548.366,271.694 L549.752,271.694 L549.752,273.566 C550.508,272.45 551.606,271.496 553.316,271.496 C555.548,271.496 557.762,273.26 557.762,276.32 L557.762,276.356 C557.762,279.398 555.566,281.198 553.316,281.198 C551.588,281.198 550.472,280.262 549.752,279.218 L549.752,283.88 L548.366,283.88 Z M553.064,279.956 C554.864,279.956 556.34,278.624 556.34,276.374 L556.34,276.338 C556.34,274.142 554.828,272.738 553.064,272.738 C551.336,272.738 549.698,274.196 549.698,276.32 L549.698,276.356 C549.698,278.516 551.336,279.956 553.064,279.956 Z M560.318,281 L560.318,267.86 L561.704,267.86 L561.704,273.314 C562.316,272.306 563.288,271.496 564.89,271.496 C567.14,271.496 568.454,273.008 568.454,275.222 L568.454,281 L567.068,281 L567.068,275.564 C567.068,273.836 566.132,272.756 564.494,272.756 C562.892,272.756 561.704,273.926 561.704,275.672 L561.704,281 L560.318,281 Z M575.654,281.216 C572.864,281.216 570.83,279.02 570.83,276.392 L570.83,276.356 C570.83,273.728 572.882,271.496 575.69,271.496 C578.48,271.496 580.532,273.692 580.532,276.32 L580.532,276.356 C580.532,278.984 578.462,281.216 575.654,281.216 Z M575.69,279.974 C577.706,279.974 579.11,278.354 579.11,276.392 L579.11,276.356 C579.11,274.358 577.616,272.72 575.654,272.72 C573.638,272.72 572.252,274.358 572.252,276.32 L572.252,276.356 C572.252,278.354 573.728,279.974 575.69,279.974 Z M583.034,281 L583.034,271.694 L584.42,271.694 L584.42,273.314 C585.032,272.306 586.004,271.496 587.606,271.496 C589.856,271.496 591.17,273.008 591.17,275.222 L591.17,281 L589.784,281 L589.784,275.564 C589.784,273.836 588.848,272.756 587.21,272.756 C585.608,272.756 584.42,273.926 584.42,275.672 L584.42,281 L583.034,281 Z M598.19,281.216 C595.634,281.216 593.546,279.254 593.546,276.374 L593.546,276.338 C593.546,273.656 595.436,271.496 598.01,271.496 C600.764,271.496 602.348,273.692 602.348,276.41 C602.348,276.59 602.348,276.698 602.33,276.86 L594.95,276.86 C595.148,278.876 596.57,280.01 598.226,280.01 C599.504,280.01 600.404,279.488 601.16,278.696 L602.024,279.47 C601.088,280.514 599.954,281.216 598.19,281.216 Z M594.95,275.834 L600.944,275.834 C600.8,274.142 599.828,272.666 597.974,272.666 C596.354,272.666 595.13,274.016 594.95,275.834 Z M450.005,304.198 C448.277,304.198 446.531,303.208 446.531,301.3 L446.531,301.264 C446.531,299.302 448.151,298.258 450.509,298.258 C451.697,298.258 452.543,298.42 453.371,298.654 L453.371,298.33 C453.371,296.656 452.345,295.792 450.599,295.792 C449.501,295.792 448.637,296.08 447.773,296.476 L447.359,295.342 C448.385,294.874 449.393,294.568 450.743,294.568 C452.057,294.568 453.065,294.91 453.749,295.594 C454.379,296.224 454.703,297.124 454.703,298.312 L454.703,304 L453.371,304 L453.371,302.596 C452.723,303.442 451.643,304.198 450.005,304.198 Z M450.275,303.1 C451.985,303.1 453.389,302.056 453.389,300.58 L453.389,299.68 C452.705,299.482 451.787,299.284 450.653,299.284 C448.907,299.284 447.935,300.04 447.935,301.21 L447.935,301.246 C447.935,302.416 449.015,303.1 450.275,303.1 Z M457.655,306.88 L457.655,294.694 L459.041,294.694 L459.041,296.566 C459.797,295.45 460.895,294.496 462.605,294.496 C464.837,294.496 467.051,296.26 467.051,299.32 L467.051,299.356 C467.051,302.398 464.855,304.198 462.605,304.198 C460.877,304.198 459.761,303.262 459.041,302.218 L459.041,306.88 L457.655,306.88 Z M462.353,302.956 C464.153,302.956 465.629,301.624 465.629,299.374 L465.629,299.338 C465.629,297.142 464.117,295.738 462.353,295.738 C460.625,295.738 458.987,297.196 458.987,299.32 L458.987,299.356 C458.987,301.516 460.625,302.956 462.353,302.956 Z M469.607,306.88 L469.607,294.694 L470.993,294.694 L470.993,296.566 C471.749,295.45 472.847,294.496 474.557,294.496 C476.789,294.496 479.003,296.26 479.003,299.32 L479.003,299.356 C479.003,302.398 476.807,304.198 474.557,304.198 C472.829,304.198 471.713,303.262 470.993,302.218 L470.993,306.88 L469.607,306.88 Z M474.305,302.956 C476.105,302.956 477.581,301.624 477.581,299.374 L477.581,299.338 C477.581,297.142 476.069,295.738 474.305,295.738 C472.577,295.738 470.939,297.196 470.939,299.32 L470.939,299.356 C470.939,301.516 472.577,302.956 474.305,302.956 Z M491.027,304.216 C488.471,304.216 486.383,302.254 486.383,299.374 L486.383,299.338 C486.383,296.656 488.273,294.496 490.847,294.496 C493.601,294.496 495.185,296.692 495.185,299.41 C495.185,299.59 495.185,299.698 495.167,299.86 L487.787,299.86 C487.985,301.876 489.407,303.01 491.063,303.01 C492.341,303.01 493.241,302.488 493.997,301.696 L494.861,302.47 C493.925,303.514 492.791,304.216 491.027,304.216 Z M487.787,298.834 L493.781,298.834 C493.637,297.142 492.665,295.666 490.811,295.666 C489.191,295.666 487.967,297.016 487.787,298.834 Z M497.615,304 L497.615,294.694 L499.001,294.694 L499.001,296.314 C499.613,295.306 500.585,294.496 502.187,294.496 C504.437,294.496 505.751,296.008 505.751,298.222 L505.751,304 L504.365,304 L504.365,298.564 C504.365,296.836 503.429,295.756 501.791,295.756 C500.189,295.756 499.001,296.926 499.001,298.672 L499.001,304 L497.615,304 Z M511.817,304.162 C510.323,304.162 509.189,303.424 509.189,301.534 L509.189,295.918 L507.893,295.918 L507.893,294.694 L509.189,294.694 L509.189,291.886 L510.575,291.886 L510.575,294.694 L513.527,294.694 L513.527,295.918 L510.575,295.918 L510.575,301.354 C510.575,302.488 511.205,302.902 512.141,302.902 C512.609,302.902 513.005,302.812 513.491,302.578 L513.491,303.766 C513.005,304.018 512.483,304.162 511.817,304.162 Z M519.773,304.216 C517.217,304.216 515.129,302.254 515.129,299.374 L515.129,299.338 C515.129,296.656 517.019,294.496 519.593,294.496 C522.347,294.496 523.931,296.692 523.931,299.41 C523.931,299.59 523.931,299.698 523.913,299.86 L516.533,299.86 C516.731,301.876 518.153,303.01 519.809,303.01 C521.087,303.01 521.987,302.488 522.743,301.696 L523.607,302.47 C522.671,303.514 521.537,304.216 519.773,304.216 Z M516.533,298.834 L522.527,298.834 C522.383,297.142 521.411,295.666 519.557,295.666 C517.937,295.666 516.713,297.016 516.533,298.834 Z M526.361,304 L526.361,294.694 L527.747,294.694 L527.747,297.124 C528.431,295.576 529.781,294.46 531.545,294.532 L531.545,296.026 L531.437,296.026 C529.403,296.026 527.747,297.484 527.747,300.292 L527.747,304 L526.361,304 Z M537.323,304.216 C534.767,304.216 532.679,302.254 532.679,299.374 L532.679,299.338 C532.679,296.656 534.569,294.496 537.143,294.496 C539.897,294.496 541.481,296.692 541.481,299.41 C541.481,299.59 541.481,299.698 541.463,299.86 L534.083,299.86 C534.281,301.876 535.703,303.01 537.359,303.01 C538.637,303.01 539.537,302.488 540.293,301.696 L541.157,302.47 C540.221,303.514 539.087,304.216 537.323,304.216 Z M534.083,298.834 L540.077,298.834 C539.933,297.142 538.961,295.666 537.107,295.666 C535.487,295.666 534.263,297.016 534.083,298.834 Z M547.817,304.198 C545.585,304.198 543.371,302.434 543.371,299.374 L543.371,299.338 C543.371,296.296 545.585,294.496 547.817,294.496 C549.545,294.496 550.661,295.432 551.381,296.476 L551.381,290.86 L552.767,290.86 L552.767,304 L551.381,304 L551.381,302.128 C550.625,303.244 549.527,304.198 547.817,304.198 Z M548.069,302.956 C549.797,302.956 551.435,301.498 551.435,299.356 L551.435,299.32 C551.435,297.178 549.797,295.738 548.069,295.738 C546.269,295.738 544.793,297.07 544.793,299.32 L544.793,299.356 C544.793,301.552 546.323,302.956 548.069,302.956 Z" id="Step-2:-Pin-from-pho" fill="#000000"></path>
        <path d="M678.502,281.18 C676.594,281.18 674.668,280.514 673.156,279.164 L674.794,277.202 C675.928,278.138 677.116,278.732 678.556,278.732 C679.69,278.732 680.374,278.282 680.374,277.544 L680.374,277.508 C680.374,276.806 679.942,276.446 677.836,275.906 C675.298,275.258 673.66,274.556 673.66,272.054 L673.66,272.018 C673.66,269.732 675.496,268.22 678.07,268.22 C679.906,268.22 681.472,268.796 682.75,269.822 L681.31,271.91 C680.194,271.136 679.096,270.668 678.034,270.668 C676.972,270.668 676.414,271.154 676.414,271.766 L676.414,271.802 C676.414,272.63 676.954,272.9 679.132,273.458 C681.688,274.124 683.128,275.042 683.128,277.238 L683.128,277.274 C683.128,279.776 681.22,281.18 678.502,281.18 Z M688.42,281.162 C686.746,281.162 685.612,280.496 685.612,278.264 L685.612,273.692 L684.46,273.692 L684.46,271.352 L685.612,271.352 L685.612,268.886 L688.348,268.886 L688.348,271.352 L690.616,271.352 L690.616,273.692 L688.348,273.692 L688.348,277.814 C688.348,278.444 688.618,278.75 689.23,278.75 C689.734,278.75 690.184,278.624 690.58,278.408 L690.58,280.604 C690.004,280.946 689.338,281.162 688.42,281.162 Z M696.934,281.216 C694.036,281.216 691.894,279.182 691.894,276.23 L691.894,276.194 C691.894,273.44 693.856,271.172 696.664,271.172 C699.886,271.172 701.362,273.674 701.362,276.41 C701.362,276.626 701.344,276.878 701.326,277.13 L694.612,277.13 C694.882,278.372 695.746,279.02 696.97,279.02 C697.888,279.02 698.554,278.732 699.31,278.03 L700.876,279.416 C699.976,280.532 698.68,281.216 696.934,281.216 Z M694.576,275.42 L698.698,275.42 C698.536,274.196 697.816,273.368 696.664,273.368 C695.53,273.368 694.792,274.178 694.576,275.42 Z M703.396,283.88 L703.396,271.352 L706.132,271.352 L706.132,272.738 C706.798,271.838 707.716,271.172 709.138,271.172 C711.388,271.172 713.53,272.936 713.53,276.158 L713.53,276.194 C713.53,279.416 711.424,281.18 709.138,281.18 C707.68,281.18 706.78,280.514 706.132,279.74 L706.132,283.88 L703.396,283.88 Z M708.436,278.858 C709.714,278.858 710.794,277.814 710.794,276.194 L710.794,276.158 C710.794,274.556 709.714,273.494 708.436,273.494 C707.158,273.494 706.096,274.556 706.096,276.158 L706.096,276.194 C706.096,277.796 707.158,278.858 708.436,278.858 Z M725.32,281.216 C723.052,281.216 721.486,280.316 720.406,279.038 L722.314,277.22 C723.178,278.192 724.078,278.732 725.356,278.732 C726.4,278.732 727.138,278.138 727.138,277.202 L727.138,277.166 C727.138,276.14 726.22,275.564 724.672,275.564 L723.52,275.564 L723.088,273.8 L726.094,270.776 L721.144,270.776 L721.144,268.4 L729.658,268.4 L729.658,270.488 L726.472,273.53 C728.182,273.818 729.856,274.718 729.856,277.058 L729.856,277.094 C729.856,279.47 728.128,281.216 725.32,281.216 Z M732.106,274.232 L732.106,271.352 L735.022,271.352 L735.022,274.232 L732.106,274.232 Z M732.106,281 L732.106,278.12 L735.022,278.12 L735.022,281 L732.106,281 Z M743.41,281 L743.41,268.4 L752.464,268.4 L752.464,269.714 L744.832,269.714 L744.832,274.214 L751.654,274.214 L751.654,275.51 L744.832,275.51 L744.832,281 L743.41,281 Z M755.02,269.66 L755.02,268.13 L756.604,268.13 L756.604,269.66 L755.02,269.66 Z M755.11,281 L755.11,271.694 L756.496,271.694 L756.496,281 L755.11,281 Z M759.718,281 L759.718,271.694 L761.104,271.694 L761.104,273.314 C761.716,272.306 762.688,271.496 764.29,271.496 C766.54,271.496 767.854,273.008 767.854,275.222 L767.854,281 L766.468,281 L766.468,275.564 C766.468,273.836 765.532,272.756 763.894,272.756 C762.292,272.756 761.104,273.926 761.104,275.672 L761.104,281 L759.718,281 Z M774.928,283.916 C773.38,283.916 771.94,283.484 770.698,282.62 L771.328,281.54 C772.39,282.314 773.578,282.728 774.91,282.728 C776.962,282.728 778.294,281.594 778.294,279.416 L778.294,278.318 C777.484,279.398 776.35,280.28 774.64,280.28 C772.408,280.28 770.266,278.606 770.266,275.924 L770.266,275.888 C770.266,273.17 772.426,271.496 774.64,271.496 C776.386,271.496 777.52,272.36 778.276,273.368 L778.276,271.694 L779.662,271.694 L779.662,279.38 C779.662,280.82 779.23,281.918 778.474,282.674 C777.646,283.502 776.404,283.916 774.928,283.916 Z M774.91,279.056 C776.674,279.056 778.33,277.778 778.33,275.906 L778.33,275.87 C778.33,273.962 776.674,272.72 774.91,272.72 C773.146,272.72 771.688,273.944 771.688,275.852 L771.688,275.888 C771.688,277.76 773.182,279.056 774.91,279.056 Z M786.826,281.216 C784.27,281.216 782.182,279.254 782.182,276.374 L782.182,276.338 C782.182,273.656 784.072,271.496 786.646,271.496 C789.4,271.496 790.984,273.692 790.984,276.41 C790.984,276.59 790.984,276.698 790.966,276.86 L783.586,276.86 C783.784,278.876 785.206,280.01 786.862,280.01 C788.14,280.01 789.04,279.488 789.796,278.696 L790.66,279.47 C789.724,280.514 788.59,281.216 786.826,281.216 Z M783.586,275.834 L789.58,275.834 C789.436,274.142 788.464,272.666 786.61,272.666 C784.99,272.666 783.766,274.016 783.586,275.834 Z M793.414,281 L793.414,271.694 L794.8,271.694 L794.8,274.124 C795.484,272.576 796.834,271.46 798.598,271.532 L798.598,273.026 L798.49,273.026 C796.456,273.026 794.8,274.484 794.8,277.292 L794.8,281 L793.414,281 Z M800.704,283.88 L800.704,271.694 L802.09,271.694 L802.09,273.566 C802.846,272.45 803.944,271.496 805.654,271.496 C807.886,271.496 810.1,273.26 810.1,276.32 L810.1,276.356 C810.1,279.398 807.904,281.198 805.654,281.198 C803.926,281.198 802.81,280.262 802.09,279.218 L802.09,283.88 L800.704,283.88 Z M805.402,279.956 C807.202,279.956 808.678,278.624 808.678,276.374 L808.678,276.338 C808.678,274.142 807.166,272.738 805.402,272.738 C803.674,272.738 802.036,274.196 802.036,276.32 L802.036,276.356 C802.036,278.516 803.674,279.956 805.402,279.956 Z M812.656,281 L812.656,271.694 L814.042,271.694 L814.042,274.124 C814.726,272.576 816.076,271.46 817.84,271.532 L817.84,273.026 L817.732,273.026 C815.698,273.026 814.042,274.484 814.042,277.292 L814.042,281 L812.656,281 Z M819.982,269.66 L819.982,268.13 L821.566,268.13 L821.566,269.66 L819.982,269.66 Z M820.072,281 L820.072,271.694 L821.458,271.694 L821.458,281 L820.072,281 Z M824.68,281 L824.68,271.694 L826.066,271.694 L826.066,273.314 C826.678,272.306 827.65,271.496 829.252,271.496 C831.502,271.496 832.816,273.008 832.816,275.222 L832.816,281 L831.43,281 L831.43,275.564 C831.43,273.836 830.494,272.756 828.856,272.756 C827.254,272.756 826.066,273.926 826.066,275.672 L826.066,281 L824.68,281 Z M838.882,281.162 C837.388,281.162 836.254,280.424 836.254,278.534 L836.254,272.918 L834.958,272.918 L834.958,271.694 L836.254,271.694 L836.254,268.886 L837.64,268.886 L837.64,271.694 L840.592,271.694 L840.592,272.918 L837.64,272.918 L837.64,278.354 C837.64,279.488 838.27,279.902 839.206,279.902 C839.674,279.902 840.07,279.812 840.556,279.578 L840.556,280.766 C840.07,281.018 839.548,281.162 838.882,281.162 Z M728.326,304.072 L724.294,294.694 L725.824,294.694 L728.956,302.416 L732.106,294.694 L733.6,294.694 L729.55,304.072 L728.326,304.072 Z M739.306,304.216 C736.75,304.216 734.662,302.254 734.662,299.374 L734.662,299.338 C734.662,296.656 736.552,294.496 739.126,294.496 C741.88,294.496 743.464,296.692 743.464,299.41 C743.464,299.59 743.464,299.698 743.446,299.86 L736.066,299.86 C736.264,301.876 737.686,303.01 739.342,303.01 C740.62,303.01 741.52,302.488 742.276,301.696 L743.14,302.47 C742.204,303.514 741.07,304.216 739.306,304.216 Z M736.066,298.834 L742.06,298.834 C741.916,297.142 740.944,295.666 739.09,295.666 C737.47,295.666 736.246,297.016 736.066,298.834 Z M745.894,304 L745.894,294.694 L747.28,294.694 L747.28,297.124 C747.964,295.576 749.314,294.46 751.078,294.532 L751.078,296.026 L750.97,296.026 C748.936,296.026 747.28,297.484 747.28,300.292 L747.28,304 L745.894,304 Z M753.22,292.66 L753.22,291.13 L754.804,291.13 L754.804,292.66 L753.22,292.66 Z M753.31,304 L753.31,294.694 L754.696,294.694 L754.696,304 L753.31,304 Z M758.44,304 L758.44,295.918 L757.162,295.918 L757.162,294.712 L758.44,294.712 L758.44,293.902 C758.44,292.84 758.728,292.03 759.25,291.508 C759.718,291.04 760.402,290.788 761.248,290.788 C761.896,290.788 762.328,290.86 762.778,291.022 L762.778,292.228 C762.274,292.084 761.896,291.994 761.428,291.994 C760.348,291.994 759.808,292.642 759.808,293.974 L759.808,294.73 L762.76,294.73 L762.76,295.918 L759.826,295.918 L759.826,304 L758.44,304 Z M764.668,304 L764.668,294.694 L766.036,294.694 L766.036,304 L764.668,304 Z M764.56,292.66 L764.56,291.13 L766.144,291.13 L766.144,292.66 L764.56,292.66 Z M773.344,304.216 C770.788,304.216 768.7,302.254 768.7,299.374 L768.7,299.338 C768.7,296.656 770.59,294.496 773.164,294.496 C775.918,294.496 777.502,296.692 777.502,299.41 C777.502,299.59 777.502,299.698 777.484,299.86 L770.104,299.86 C770.302,301.876 771.724,303.01 773.38,303.01 C774.658,303.01 775.558,302.488 776.314,301.696 L777.178,302.47 C776.242,303.514 775.108,304.216 773.344,304.216 Z M770.104,298.834 L776.098,298.834 C775.954,297.142 774.982,295.666 773.128,295.666 C771.508,295.666 770.284,297.016 770.104,298.834 Z M783.838,304.198 C781.606,304.198 779.392,302.434 779.392,299.374 L779.392,299.338 C779.392,296.296 781.606,294.496 783.838,294.496 C785.566,294.496 786.682,295.432 787.402,296.476 L787.402,290.86 L788.788,290.86 L788.788,304 L787.402,304 L787.402,302.128 C786.646,303.244 785.548,304.198 783.838,304.198 Z M784.09,302.956 C785.818,302.956 787.456,301.498 787.456,299.356 L787.456,299.32 C787.456,297.178 785.818,295.738 784.09,295.738 C782.29,295.738 780.814,297.07 780.814,299.32 L780.814,299.356 C780.814,301.552 782.344,302.956 784.09,302.956 Z" id="Step-3:-Fingerprint" fill="#000000"></path>
        <path id="Line-8" d="M443.5,173.361596 L291.816279,173.361596 L291.316279,173.361596 L291.316279,172.361596 L291.816279,172.361596 L443.5,172.361596 L443.5,168.361596 L452.5,172.861596 L443.5,177.361596 L443.5,173.361596 Z" fill="#00A9E0" fill-rule="nonzero"></path>
        <path id="Line-8" d="M700.5,173.361596 L548.816279,173.361596 L548.316279,173.361596 L548.316279,172.361596 L548.816279,172.361596 L700.5,172.361596 L700.5,168.361596 L709.5,172.861596 L700.5,177.361596 L700.5,173.361596 Z" fill="#00A9E0" fill-rule="nonzero"></path>
    </g>
</svg>