<svg width={24} height={24} viewBox="0 0 24 24" fill="none" xmlns="http://www.w3.org/2000/svg">
  <g clipPath="url(#clip0_36_37)">
    <path d="M12.75 9.20127V7.55127H11.25V9.20127L9.8205 8.37627L9.0705 9.67527L10.5 10.5003L9.0705 11.3253L9.8205 12.6243L11.25 11.7993V13.4493H12.75V11.7993L14.1795 12.6243L14.9295 11.3253L13.5 10.5003L14.9295 9.67677L14.1795 8.37627L12.75 9.20127Z" fill="black" />
    <path d="M19.6098 13.6101C19.6802 13.5398 19.7755 13.5003 19.875 13.5003H20.625C20.7245 13.5003 20.8198 13.5398 20.8902 13.6101C20.9605 13.6804 21 13.7758 21 13.8753V14.6253C21 14.7247 20.9605 14.8201 20.8902 14.8904C20.8198 14.9608 20.7245 15.0003 20.625 15.0003H19.875C19.668 15.0003 19.5 14.8323 19.5 14.6253V13.8753C19.5 13.7758 19.5395 13.6804 19.6098 13.6101Z" fill="black" />
    <path d="M19.6098 16.6101C19.5395 16.6804 19.5 16.7758 19.5 16.8753V17.6253C19.5 17.7247 19.5395 17.8201 19.6098 17.8904C19.6802 17.9608 19.7755 18.0003 19.875 18.0003H20.625C20.7245 18.0003 20.8198 17.9608 20.8902 17.8904C20.9605 17.8201 21 17.7247 21 17.6253V16.8753C21 16.7758 20.9605 16.6804 20.8902 16.6101C20.8198 16.5398 20.7245 16.5003 20.625 16.5003H19.875C19.7755 16.5003 19.6802 16.5398 19.6098 16.6101Z" fill="black" />
    <path d="M19.6098 19.6101C19.6802 19.5398 19.7755 19.5003 19.875 19.5003H20.625C20.7245 19.5003 20.8198 19.5398 20.8902 19.6101C20.9605 19.6804 21 19.7758 21 19.8753V20.6253C21 20.7247 20.9605 20.8201 20.8902 20.8904C20.8198 20.9608 20.7245 21.0003 20.625 21.0003H19.875C19.668 21.0003 19.5 20.8323 19.5 20.6253V19.8753C19.5 19.7758 19.5395 19.6804 19.6098 19.6101Z" fill="black" />
    <path d="M3.10984 13.6101C3.18016 13.5398 3.27554 13.5003 3.375 13.5003H4.125C4.22446 13.5003 4.31984 13.5398 4.39016 13.6101C4.46049 13.6804 4.5 13.7758 4.5 13.8753V14.6253C4.5 14.7247 4.46049 14.8201 4.39016 14.8904C4.31984 14.9608 4.22446 15.0003 4.125 15.0003H3.375C3.168 15.0003 3 14.8323 3 14.6253V13.8753C3 13.7758 3.03951 13.6804 3.10984 13.6101Z" fill="black" />
    <path d="M3.10984 16.6101C3.18016 16.5398 3.27554 16.5003 3.375 16.5003H4.125C4.22446 16.5003 4.31984 16.5398 4.39016 16.6101C4.46049 16.6804 4.5 16.7758 4.5 16.8753V17.6253C4.5 17.7247 4.46049 17.8201 4.39016 17.8904C4.31984 17.9608 4.22446 18.0003 4.125 18.0003H3.375C3.168 18.0003 3 17.8323 3 17.6253V16.8753C3 16.7758 3.03951 16.6804 3.10984 16.6101Z" fill="black" />
    <path d="M3.10984 19.6101C3.03951 19.6804 3 19.7758 3 19.8753V20.6253C3 20.7247 3.03951 20.8201 3.10984 20.8904C3.18016 20.9608 3.27554 21.0003 3.375 21.0003H4.125C4.22446 21.0003 4.31984 20.9608 4.39016 20.8904C4.46049 20.8201 4.5 20.7247 4.5 20.6253V19.8753C4.5 19.7758 4.46049 19.6804 4.39016 19.6101C4.31984 19.5398 4.22446 19.5003 4.125 19.5003H3.375C3.27554 19.5003 3.18016 19.5398 3.10984 19.6101Z" fill="black" />
    <path fillRule="evenodd" clipRule="evenodd" d="M7.93934 0.43934C7.65804 0.720644 7.5 1.10218 7.5 1.5V3C7.10218 3 6.72064 3.15804 6.43934 3.43934C6.15804 3.72064 6 4.10218 6 4.5V10.5H1.5C1.10218 10.5 0.720644 10.658 0.43934 10.9393C0.158035 11.2206 0 11.6022 0 12V22.5C0 22.8978 0.158035 23.2794 0.43934 23.5607C0.720644 23.842 1.10218 24 1.5 24H22.5C22.8978 24 23.2794 23.842 23.5607 23.5607C23.842 23.2794 24 22.8978 24 22.5V12C24 11.6022 23.842 11.2206 23.5607 10.9393C23.2794 10.658 22.8978 10.5 22.5 10.5H18V4.5C18 4.10218 17.842 3.72064 17.5607 3.43934C17.2794 3.15804 16.8978 3 16.5 3V1.5C16.5 1.10218 16.342 0.720644 16.0607 0.43934C15.7794 0.158035 15.3978 0 15 0H9C8.60218 0 8.22064 0.158035 7.93934 0.43934ZM13.5 22.5H10.5V18H13.5V22.5ZM16.5 22.5H15V18C15 17.6022 14.842 17.2206 14.5607 16.9393C14.2794 16.658 13.8978 16.5 13.5 16.5H10.5C10.1022 16.5 9.72064 16.658 9.43934 16.9393C9.15804 17.2206 9 17.6022 9 18V22.5H7.5V4.5H16.5V22.5ZM9 1.5H15V3H9V1.5ZM18 22.5V12H22.5V22.5H18ZM6 12V22.5H1.5V12H6Z" fill="black" />
  </g>
  <defs>
    <clipPath id="clip0_36_37">
      <rect width={24} height={24} fill="white" />
    </clipPath>
  </defs>
</svg>
