<svg width="33" height="31" viewBox="0 0 33 31" fill="none" xmlns="http://www.w3.org/2000/svg">
<path d="M30.9131 0H1.66103C0.743669 0 0 0.707732 0 1.58076V14.8364C0 15.7094 0.743669 16.4171 1.66103 16.4171H7.6627V29.4192C7.66216 29.8383 7.83671 30.2404 8.14789 30.5369C8.45907 30.8334 8.88135 31 9.3217 31H23.2504C24.1677 31 24.9114 30.2923 24.9114 29.4192V16.4229H30.9131C31.3534 16.4229 31.7757 16.2563 32.0869 15.9598C32.3981 15.6633 32.5726 15.2612 32.5721 14.8422V1.58076C32.5726 1.1617 32.3981 0.759619 32.0869 0.463112C31.7757 0.166606 31.3534 0 30.9131 0ZM1.92533 1.83423H15.3234V14.5848H1.92533V1.83423ZM22.9861 29.1677H9.58803V16.4229H22.9861V29.1677ZM30.6467 14.5848H17.2487V1.83423H30.6467V14.5848Z" fill="#2D3748"/>
<path d="M11.0275 10.3203C11.4069 10.6592 12.0004 10.6502 12.3684 10.3001C12.7363 9.94993 12.7457 9.38506 12.3896 9.02398L9.31358 6.09657C8.9364 5.74096 8.3286 5.74096 7.95142 6.09657L4.86722 9.02398C4.61086 9.25295 4.50587 9.59661 4.59327 9.9207C4.68067 10.2448 4.94659 10.4979 5.28713 10.581C5.62768 10.6642 5.9888 10.5643 6.22939 10.3203L8.62437 8.04108L11.0275 10.3203Z" fill="#2D3748"/>
<path d="M21.5528 10.3203L23.9478 8.04108L26.3428 10.3203C26.7222 10.6592 27.3158 10.6502 27.6837 10.3001C28.0516 9.94993 28.061 9.38506 27.705 9.02398L24.6289 6.09657C24.2517 5.74096 23.6439 5.74096 23.2667 6.09657L20.1907 9.02398C19.8346 9.38506 19.844 9.94993 20.2119 10.3001C20.5799 10.6502 21.1734 10.6592 21.5528 10.3203Z" fill="#2D3748"/>
<path d="M13.8898 20.6795C13.5099 20.3412 12.9163 20.3509 12.5489 20.7016C12.1816 21.0523 12.173 21.6172 12.5297 21.9778L15.6058 24.9033C15.7862 25.0755 16.0313 25.1724 16.2868 25.1724C16.5424 25.1724 16.7875 25.0755 16.9679 24.9033L20.044 21.9778C20.2877 21.7462 20.383 21.4085 20.2942 21.0919C20.2053 20.7753 19.9456 20.5278 19.6131 20.4427C19.2805 20.3577 18.9255 20.4479 18.6818 20.6795L16.2868 22.9607L13.8898 20.6795Z" fill="#2D3748"/>
</svg>
