<svg width={17} height={20} viewBox="0 0 17 20" fill="none" xmlns="http://www.w3.org/2000/svg">
  <path fillRule="evenodd" clipRule="evenodd" d="M2.00272 0.638689C2.18863 0.4203 2.41187 0.250887 2.65764 0.141677C2.90341 0.0324666 3.16611 -0.0140472 3.42832 0.00521808C3.69052 0.0244833 3.94626 0.109088 4.17857 0.253424C4.41089 0.397761 4.61447 0.598535 4.77584 0.842439L6.68303 3.72494C7.03259 4.25369 7.15584 4.94244 7.01772 5.59244L6.43653 8.32994C6.40648 8.47173 6.4081 8.62024 6.44124 8.76108C6.47438 8.90191 6.53791 9.03027 6.62566 9.13369L9.23622 12.2049C9.32423 12.3084 9.43352 12.3832 9.55343 12.4222C9.67334 12.4612 9.79979 12.463 9.92047 12.4274L12.2463 11.7437C12.5189 11.6635 12.8035 11.6573 13.0785 11.7255C13.3535 11.7937 13.6117 11.9346 13.8337 12.1374L16.2838 14.3799C17.1646 15.1862 17.2453 16.7174 16.457 17.6437L15.3583 18.9362C14.5721 19.8612 13.397 20.2674 12.3015 19.8137C9.49779 18.6531 6.95213 16.7647 4.85341 14.2887C2.7489 11.82 1.1438 8.82551 0.157155 5.52744C-0.22747 4.23994 0.117843 2.85619 0.904093 1.93119L2.00272 0.638689Z" fill="black" />
</svg>
